<svg width="290" height="76" viewBox="0 0 290 76" fill="none" xmlns="http://www.w3.org/2000/svg">
<path fill-rule="evenodd" clip-rule="evenodd" d="M155.06 36.9307C155.06 36.9307 153.035 35.6979 151.785 35.221C151.785 35.221 147.911 33.4527 147.143 32.6113C147.143 32.6113 145.633 31.2098 146.517 29.5821C146.517 29.5821 146.887 28.517 148.482 28.517C148.482 28.517 150.559 28.6295 150.559 30.311V32.6829H158.002L157.99 29.1896C157.99 29.1896 158.561 23.4689 149.222 23.217C149.222 23.217 141.876 22.7413 139.77 26.6387C139.77 26.6387 138.943 27.5082 138.943 30.536V32.7238C138.943 32.7238 138.858 35.2479 140.166 36.8744C140.166 36.8744 140.907 37.9408 142.73 39.1171C142.73 39.1171 146.43 41.0798 148.65 42.2038C148.65 42.2038 150.893 43.4645 150.598 45.4708C150.598 45.4708 150.415 47.5308 148.25 47.4464C148.25 47.4464 146.27 47.3593 146.27 45.339V42.9684H138.339V46.4119C138.339 46.4119 138.117 52.9969 148.308 52.9969C148.308 52.9969 158.046 53.1913 158.5 46.2392V43.4352C158.499 43.4352 158.845 39.1747 155.06 36.9307ZM116.954 24.0366L114.461 39.4214H113.879L111.498 24.1747H99.0651L98.4421 52.0354H105.803L105.892 31.0437H106.471L110.373 52.0316H118.117L121.971 31.0513H122.483L122.661 52.0354H130.062L129.265 24.0366H116.954ZM73.1339 24.153L68.2363 52.0034H76.1609L79.062 30.4094H79.7138L82.6135 52.0034H90.5369L85.6406 24.153H73.1339ZM239.418 36.547V40.6553H241.451V45.0654C241.451 47.2213 239.58 47.2608 239.58 47.2608C237.306 47.2608 237.392 45.2125 237.392 45.2125V29.9581C237.392 28.3866 239.41 28.3022 239.41 28.3022C241.347 28.3022 241.359 30.1767 241.359 30.1767V32.4962H248.821C249.065 27.9685 248.149 26.8727 248.149 26.8727C246.298 22.7784 239.295 23.0022 239.295 23.0022C228.536 23.0022 229.73 31.1345 229.73 31.1345V45.8837C229.961 53.511 240.564 52.736 240.744 52.7297C245.458 52.2157 246.882 50.7388 246.882 50.7388C248.194 49.7798 248.531 48.4513 248.531 48.4513C248.907 47.6778 249 45.2125 249 45.2125V36.547H239.418ZM214.685 41.0798H214.362L206.79 24.0443H197.731V52.0379H205.103L204.663 35.005H204.992L212.836 52.0379H221.62V24.0417H214.153L214.685 41.0798ZM179.733 45.0629C179.733 45.0629 179.84 47.3606 177.676 47.3606C177.676 47.3606 175.403 47.4809 175.403 45.1204L175.38 24.0609H167.293V44.9529C167.293 44.9529 166.463 52.8601 177.791 52.8601C177.791 52.8601 187.636 52.9752 187.636 45.316V24.0622H179.733V45.0629ZM57.7168 36.9307C57.7168 36.9307 55.6958 35.6979 54.4431 35.2223C54.4431 35.2223 50.5723 33.4552 49.8038 32.6126C49.8038 32.6126 48.2943 31.2086 49.1794 29.5847C49.1794 29.5847 49.5481 28.5196 51.1422 28.5196C51.1422 28.5196 53.2203 28.6308 53.2203 30.3123V32.6842H60.666L60.6518 29.1896C60.6518 29.1896 61.2202 23.4689 51.8847 23.2183C51.8847 23.2183 51.1811 23.1735 50.1491 23.2247C50.1491 23.2247 44.4934 23.5239 42.4712 26.5799C42.4594 26.6029 42.4426 26.6195 42.4309 26.6399C42.4309 26.6399 41.6052 27.5082 41.6052 30.5373V32.7251C41.6052 32.7251 41.5196 35.2491 42.8293 36.8756C42.8293 36.8756 43.5693 37.9421 45.3918 39.1184C45.3918 39.1184 49.0912 41.0812 51.3122 42.2051C51.3122 42.2051 53.5566 43.4633 53.2593 45.4721C53.2593 45.4721 53.0762 47.5319 50.9124 47.4476C50.9124 47.4476 48.9328 47.3606 48.9328 45.3403V42.9684H41.0004V46.4144C41.0004 46.4144 40.7784 52.9995 50.9695 52.9995C50.9695 52.9995 60.705 53.1939 61.1631 46.2417V43.4402C61.1631 43.4377 61.5033 39.1747 57.7168 36.9307Z" fill="#6B6B68"/>
</svg>
